<?xml version="1.0" encoding="utf-8"?>
<svg id="_レイヤー_1" data-name="レイヤー_1" xmlns="http://www.w3.org/2000/svg" version="1.1" viewBox="0 0 443.848 384.574">
  <defs>
    <style>
      .st0 {
        fill: #e7d030;
        stroke: #231815;
        stroke-linecap: round;
        stroke-linejoin: round;
        stroke-width: 26.13px;
      }
    </style>
  </defs>
  <path class="st0" d="M 426.952 224.105 C 422.372 217.025 405.072 214.905 370.462 210.655 C 355.542 208.825 337.402 207.475 328.752 194.455 C 327.452 192.495 326.652 190.705 326.172 189.465 C 323.282 181.185 326.712 171.235 323.572 129.485 C 317.552 101.085 313.892 79.775 311.572 64.515 C 311.342 63.005 306.932 34.075 293.662 23.445 C 288.932 19.655 283.472 18.035 283.472 18.035 C 281.232 17.375 274.512 15.495 267.242 18.045 C 259.722 20.695 255.922 26.575 254.272 29.175 C 249.992 35.965 248.092 44.905 251.562 66.785 C 255.792 93.295 262.302 103.385 258.972 105.535 C 255.872 107.535 248.532 99.835 212.672 70.945 C 207.852 67.065 202.892 63.095 196.442 58.185 C 182.082 47.215 172.042 40.355 169.442 38.585 C 144.052 21.365 136.972 20.075 131.322 20.315 C 128.622 20.435 122.322 20.785 116.502 25.025 C 111.692 28.535 109.652 32.915 109.212 33.935 C 107.482 37.815 107.432 41.085 107.412 43.975 C 107.382 46.375 107.352 52.615 110.842 59.245 C 111.672 60.835 112.872 62.765 117.082 67.385 C 124.422 75.445 131.132 80.895 133.552 82.845 C 140.812 88.705 145.852 92.145 150.102 95.215 C 159.912 102.295 179.752 118.895 179.262 119.495 C 178.842 120.005 162.052 107.675 128.462 83.035 C 128.272 82.905 121.362 77.305 111.492 70.805 C 108.902 69.115 102.742 65.115 94.272 61.205 C 88.162 58.375 84.922 57.465 81.732 57.005 C 78.922 56.595 75.292 56.065 70.842 57.095 C 63.042 58.955 58.572 64.345 57.082 66.195 C 54.302 69.665 53.042 73.015 52.162 75.415 C 51.382 77.525 50.352 80.365 50.082 84.275 C 49.922 86.445 49.642 91.125 51.912 96.285 C 52.372 97.335 53.812 100.385 58.122 104.675 C 63.452 109.965 68.722 112.725 71.602 114.255 C 78.932 118.185 85.672 123.115 92.782 127.405 C 99.362 131.355 122.212 145.115 139.202 157.885 C 141.062 159.295 142.522 160.405 142.452 160.505 C 142.252 160.755 129.882 151.935 113.282 141.365 C 96.092 130.445 94.892 130.715 80.072 121.065 C 75.062 117.805 69.772 114.925 64.762 111.665 C 58.922 107.875 56.512 106.075 51.972 104.775 C 46.092 103.095 41.142 103.565 39.112 103.835 C 32.132 104.785 27.472 107.825 26.592 108.415 C 24.652 109.705 17.452 114.525 15.532 123.745 C 13.852 131.655 17.112 138.045 18.352 140.475 C 20.412 144.515 22.852 146.885 27.432 151.295 C 30.132 153.905 33.462 156.485 40.162 161.645 C 43.482 164.195 46.362 166.415 50.392 169.325 C 55.052 172.685 59.202 175.455 61.652 177.035 C 70.152 182.555 75.752 184.715 83.002 188.845 C 102.372 199.845 117.282 210.405 117.182 210.545 C 117.182 210.595 115.182 209.535 115.182 209.535 C 110.952 207.425 100.132 201.795 82.682 191.075 C 64.472 179.905 51.762 171.015 37.362 172.475 C 31.142 173.115 27.502 175.735 26.132 176.755 C 17.742 182.865 16.682 193.015 16.452 195.385 C 15.352 206.065 20.602 214.035 22.482 216.785 C 25.832 221.685 29.182 223.985 39.332 230.745 C 58.192 243.295 67.612 249.575 75.682 254.445 C 82.722 258.695 88.622 262.265 96.562 266.725 C 115.312 277.245 125.042 281.325 143.242 290.375 C 176.402 306.845 169.612 305.985 190.782 315.545 C 210.832 324.605 234.292 333.205 243.872 336.645 C 248.452 338.285 251.892 339.475 253.232 339.945 C 340.782 370.335 349.532 369.125 355.652 366.725 C 367.662 362.005 366.032 354.055 390.622 306.205 C 418.822 251.345 434.382 235.675 426.932 224.165 L 426.952 224.105 Z"/>
</svg>